<svg id="ePRLYCtedu01" xmlns="http://www.w3.org/2000/svg" xmlns:xlink="http://www.w3.org/1999/xlink" viewBox="0 0 26 28" shape-rendering="geometricPrecision" text-rendering="geometricPrecision">
<style><![CDATA[
#ePRLYCtedu03 {animation: ePRLYCtedu03_c_o 1500ms linear infinite normal forwards}@keyframes ePRLYCtedu03_c_o { 0% {opacity: 0} 53.333333% {opacity: 0} 86.666667% {opacity: 1} 100% {opacity: 1}} #ePRLYCtedu04 {animation: ePRLYCtedu04_c_o 1500ms linear infinite normal forwards}@keyframes ePRLYCtedu04_c_o { 0% {opacity: 0} 26.666667% {opacity: 0} 60% {opacity: 1} 100% {opacity: 1}} #ePRLYCtedu05 {animation: ePRLYCtedu05_c_o 1500ms linear infinite normal forwards}@keyframes ePRLYCtedu05_c_o { 0% {opacity: 0} 33.333333% {opacity: 1} 100% {opacity: 1}}
]]></style>
<path d="M6.88281,12.183l1.95108-1.9474c.23227-.2318.23227-.60277,0-.78823L5.62854,6.24812c-.23227-.23183-.60391-.23183-.78973,0L2.70191,8.38095c-1.90463,1.90105-1.90463,5.00755,0,6.95485l8.64049,8.6705c1.9047,1.901,5.0171,1.901,6.9682,0l2.1369-2.1329c.2323-.2318.2323-.6027,0-.7882l-3.2518-3.2456c-.2323-.2318-.6039-.2318-.7897,0l-1.9976,1.901c-.3252.3246-.8362.3246-1.2078,0l-3.2518-3.292-3.06599-3.0601c-.32518-.371-.32518-.881,0-1.2055Z" fill="none" stroke="#122023" stroke-width="2.5" stroke-linecap="round" stroke-linejoin="round" stroke-miterlimit="10"/><path id="ePRLYCtedu03" d="M14.6406,2.26065c.2323,0,.4181,0,.6504,0c5.0635,0,9.1515,4.0802,9.1515,9.13405c0,.2319,0,.4637-.0465.6492" opacity="0" fill="none" stroke="#122023" stroke-width="2.5" stroke-linecap="round" stroke-linejoin="round" stroke-miterlimit="10"/><path id="ePRLYCtedu04" d="M14.6406,5.13532c.2323,0,.4181-.04636.6504-.04636c3.4841,0,6.2713,2.78195,6.2713,6.25944c0,.1391,0,.3245,0,.4636" opacity="0" fill="none" stroke="#122023" stroke-width="2.5" stroke-linecap="round" stroke-linejoin="round" stroke-miterlimit="10"/><path id="ePRLYCtedu05" d="M14.5938,8.10276c.2322-.04636.4645-.04636.6503-.04636c1.8582,0,3.3447,1.48371,3.3447,3.3383c0,.2319-.0464.4637-.0464.6492" opacity="0" fill="none" stroke="#122023" stroke-width="2.5" stroke-linecap="round" stroke-linejoin="round" stroke-miterlimit="10"/></svg>
