<svg id="eeZvMn3Q7ap1" xmlns="http://www.w3.org/2000/svg" xmlns:xlink="http://www.w3.org/1999/xlink" viewBox="0 0 400 400" shape-rendering="geometricPrecision" text-rendering="geometricPrecision">
<style><![CDATA[
#eeZvMn3Q7ap16 {animation: eeZvMn3Q7ap16_s_do 4500ms linear infinite normal forwards}@keyframes eeZvMn3Q7ap16_s_do { 0% {stroke-dashoffset: 1129.4} 11.111111% {stroke-dashoffset: 0} 100% {stroke-dashoffset: 0}} #eeZvMn3Q7ap17 {animation: eeZvMn3Q7ap17_s_do 4500ms linear infinite normal forwards}@keyframes eeZvMn3Q7ap17_s_do { 0% {stroke-dashoffset: -1003.93} 8.888889% {stroke-dashoffset: -1003.93} 20% {stroke-dashoffset: 0} 100% {stroke-dashoffset: 0}} #eeZvMn3Q7ap18 {animation: eeZvMn3Q7ap18_s_do 4500ms linear infinite normal forwards}@keyframes eeZvMn3Q7ap18_s_do { 0% {stroke-dashoffset: 878.42} 15.555556% {stroke-dashoffset: 878.42} 26.666667% {stroke-dashoffset: 0} 100% {stroke-dashoffset: 0}} #eeZvMn3Q7ap19 {animation: eeZvMn3Q7ap19_s_do 4500ms linear infinite normal forwards}@keyframes eeZvMn3Q7ap19_s_do { 0% {stroke-dashoffset: -752.95} 24.444444% {stroke-dashoffset: -752.95} 35.555556% {stroke-dashoffset: 0} 100% {stroke-dashoffset: 0}} #eeZvMn3Q7ap20 {animation: eeZvMn3Q7ap20_s_do 4500ms linear infinite normal forwards}@keyframes eeZvMn3Q7ap20_s_do { 0% {stroke-dashoffset: 627.44} 35.555556% {stroke-dashoffset: 627.44} 46.666667% {stroke-dashoffset: 0} 100% {stroke-dashoffset: 0}} #eeZvMn3Q7ap21 {animation: eeZvMn3Q7ap21_s_do 4500ms linear infinite normal forwards}@keyframes eeZvMn3Q7ap21_s_do { 0% {stroke-dashoffset: -501.97} 44.444444% {stroke-dashoffset: -501.97} 55.555556% {stroke-dashoffset: 0} 100% {stroke-dashoffset: 0}} #eeZvMn3Q7ap22 {animation: eeZvMn3Q7ap22_s_do 4500ms linear infinite normal forwards}@keyframes eeZvMn3Q7ap22_s_do { 0% {stroke-dashoffset: 376.46} 53.333333% {stroke-dashoffset: 376.46} 64.444444% {stroke-dashoffset: 0} 100% {stroke-dashoffset: 0}} #eeZvMn3Q7ap23 {animation: eeZvMn3Q7ap23_s_do 4500ms linear infinite normal forwards}@keyframes eeZvMn3Q7ap23_s_do { 0% {stroke-dashoffset: -250.98} 62.222222% {stroke-dashoffset: -250.98} 73.333333% {stroke-dashoffset: 0} 100% {stroke-dashoffset: 0}} #eeZvMn3Q7ap24 {animation: eeZvMn3Q7ap24_s_do 4500ms linear infinite normal forwards}@keyframes eeZvMn3Q7ap24_s_do { 0% {stroke-dashoffset: 125.48} 71.111111% {stroke-dashoffset: 125.48} 82.222222% {stroke-dashoffset: 0} 100% {stroke-dashoffset: 0}}
]]></style>
<g clip-path="url(#eeZvMn3Q7ap25)"><g opacity="0.2"><path d="M199.997,399.687c110.285,0,199.689-89.404,199.689-199.69c0-110.2857-89.404-199.689871-199.689-199.689871C89.7108,0.307129,0.306641,89.7113,0.306641,199.997c0,110.286,89.404159,199.69,199.690359,199.69Z" fill="none" stroke="#122023" stroke-miterlimit="10"/><path d="M199.997,379.726c99.258,0,179.723-80.464,179.723-179.723c0-99.258-80.465-179.7232-179.723-179.7232-99.259,0-179.7236,80.4652-179.7236,179.7232c0,99.259,80.4646,179.723,179.7236,179.723Z" fill="none" stroke="#122023" stroke-miterlimit="10"/><path d="M312.958,312.962c62.389-62.389,62.389-163.541,0-225.93s-163.541-62.3889-225.9304,0c-62.3889,62.389-62.3889,163.541,0,225.93c62.3894,62.389,163.5414,62.389,225.9304,0Z" fill="none" stroke="#122023" stroke-miterlimit="10"/><path d="M199.997,339.787c77.201,0,139.784-62.583,139.784-139.784s-62.583-139.784-139.784-139.784-139.7841,62.583-139.7841,139.784s62.5831,139.784,139.7841,139.784Z" fill="none" stroke="#122023" stroke-miterlimit="10"/><path d="M199.997,319.815c66.174,0,119.818-53.645,119.818-119.818s-53.644-119.8176-119.818-119.8176c-66.173,0-119.8173,53.6446-119.8173,119.8176s53.6443,119.818,119.8173,119.818Z" fill="none" stroke="#122023" stroke-miterlimit="10"/><path d="M201.002,299.841c55.14-.558,99.387-45.71,98.829-100.85s-45.711-99.3878-100.851-98.83c-55.14.559-99.3869,45.711-98.829,100.851.559,55.14,45.711,99.387,100.851,98.829Z" fill="none" stroke="#122023" stroke-miterlimit="10"/><path d="M199.996,279.882c44.115,0,79.878-35.763,79.878-79.879c0-44.115-35.763-79.878-79.878-79.878-44.116,0-79.879,35.763-79.879,79.878c0,44.116,35.763,79.879,79.879,79.879Z" fill="none" stroke="#122023" stroke-miterlimit="10"/><path d="M199.996,259.903c33.085,0,59.905-26.821,59.905-59.906s-26.82-59.906-59.905-59.906-59.906,26.821-59.906,59.906s26.821,59.906,59.906,59.906Z" fill="none" stroke="#122023" stroke-miterlimit="10"/><path d="M199.998,239.942c22.054,0,39.939-17.878,39.939-39.939s-17.878-39.939-39.939-39.939-39.939,17.884-39.939,39.939s17.884,39.939,39.939,39.939Z" fill="none" stroke="#122023" stroke-miterlimit="10"/><path d="M199.998,219.97c11.03,0,19.966-8.943,19.966-19.973s-8.942-19.966-19.966-19.966-19.967,8.942-19.967,19.966s8.943,19.973,19.967,19.973Z" fill="none" stroke="#122023" stroke-miterlimit="10"/></g><g opacity="0.2"><path d="M199.997,399.687c110.285,0,199.689-89.404,199.689-199.69c0-110.2857-89.404-199.689871-199.689-199.689871C89.7108,0.307129,0.306641,89.7113,0.306641,199.997c0,110.286,89.404159,199.69,199.690359,199.69Z" fill="none" stroke="#122023" stroke-miterlimit="10"/><path id="eeZvMn3Q7ap16" d="M199.997,379.726c99.258,0,179.723-80.464,179.723-179.723c0-99.258-80.465-179.7232-179.723-179.7232-99.259,0-179.7236,80.4652-179.7236,179.7232c0,99.259,80.4646,179.723,179.7236,179.723Z" fill="none" stroke="#122023" stroke-miterlimit="10" stroke-dashoffset="1129.4" stroke-dasharray="1129.4"/><path id="eeZvMn3Q7ap17" d="M312.958,312.962c62.389-62.389,62.389-163.541,0-225.93s-163.541-62.3889-225.9304,0c-62.3889,62.389-62.3889,163.541,0,225.93c62.3894,62.389,163.5414,62.389,225.9304,0Z" fill="none" stroke="#122023" stroke-miterlimit="10" stroke-dashoffset="-1003.93" stroke-dasharray="1003.93"/><path id="eeZvMn3Q7ap18" d="M199.997,339.787c77.201,0,139.784-62.583,139.784-139.784s-62.583-139.784-139.784-139.784-139.7841,62.583-139.7841,139.784s62.5831,139.784,139.7841,139.784Z" fill="none" stroke="#122023" stroke-miterlimit="10" stroke-dashoffset="878.42" stroke-dasharray="878.42"/><path id="eeZvMn3Q7ap19" d="M199.997,319.815c66.174,0,119.818-53.645,119.818-119.818s-53.644-119.8176-119.818-119.8176c-66.173,0-119.8173,53.6446-119.8173,119.8176s53.6443,119.818,119.8173,119.818Z" fill="none" stroke="#122023" stroke-miterlimit="10" stroke-dashoffset="-752.95" stroke-dasharray="752.95"/><path id="eeZvMn3Q7ap20" d="M201.002,299.841c55.14-.558,99.387-45.71,98.829-100.85s-45.711-99.3878-100.851-98.83c-55.14.559-99.3869,45.711-98.829,100.851.559,55.14,45.711,99.387,100.851,98.829Z" fill="none" stroke="#122023" stroke-miterlimit="10" stroke-dashoffset="627.44" stroke-dasharray="627.44"/><path id="eeZvMn3Q7ap21" d="M199.996,279.882c44.115,0,79.878-35.763,79.878-79.879c0-44.115-35.763-79.878-79.878-79.878-44.116,0-79.879,35.763-79.879,79.878c0,44.116,35.763,79.879,79.879,79.879Z" fill="none" stroke="#122023" stroke-miterlimit="10" stroke-dashoffset="-501.97" stroke-dasharray="501.97"/><path id="eeZvMn3Q7ap22" d="M199.996,259.903c33.085,0,59.905-26.821,59.905-59.906s-26.82-59.906-59.905-59.906-59.906,26.821-59.906,59.906s26.821,59.906,59.906,59.906Z" fill="none" stroke="#122023" stroke-miterlimit="10" stroke-dashoffset="376.46" stroke-dasharray="376.46"/><path id="eeZvMn3Q7ap23" d="M199.998,239.942c22.054,0,39.939-17.878,39.939-39.939s-17.878-39.939-39.939-39.939-39.939,17.884-39.939,39.939s17.884,39.939,39.939,39.939Z" fill="none" stroke="#122023" stroke-miterlimit="10" stroke-dashoffset="-250.98" stroke-dasharray="250.98"/><path id="eeZvMn3Q7ap24" d="M199.998,219.97c11.03,0,19.966-8.943,19.966-19.973s-8.942-19.966-19.966-19.966-19.967,8.942-19.967,19.966s8.943,19.973,19.967,19.973Z" fill="none" stroke="#122023" stroke-miterlimit="10" stroke-dashoffset="125.48" stroke-dasharray="125.48"/></g><clipPath id="eeZvMn3Q7ap25"><rect width="400" height="400" rx="0" ry="0" fill="#fff"/></clipPath></g></svg>
